<svg style="display: none;" aria-hidden="true" xmlns="http://www.w3.org/2000/svg" xmlns:xlink="http://www.w3.org/1999/xlink"><symbol fill="currentColor" viewBox="0 0 24 24" id="svg-arr-down" xmlns="http://www.w3.org/2000/svg">
  <path d="M8.12 9.29 12 13.17l3.88-3.88a.996.996 0 1 1 1.41 1.41l-4.59 4.59a.996.996 0 0 1-1.41 0L6.7 10.7a.996.996 0 0 1 0-1.41c.39-.38 1.03-.39 1.42 0Z"/>
</symbol><symbol fill="currentColor" viewBox="0 0 24 24" id="svg-burger" xmlns="http://www.w3.org/2000/svg">
  <path d="M4 10.5c-.83 0-1.5.67-1.5 1.5s.67 1.5 1.5 1.5 1.5-.67 1.5-1.5-.67-1.5-1.5-1.5Zm0-6c-.83 0-1.5.67-1.5 1.5S3.17 7.5 4 7.5 5.5 6.83 5.5 6 4.83 4.5 4 4.5Zm0 12c-.83 0-1.5.68-1.5 1.5s.68 1.5 1.5 1.5 1.5-.68 1.5-1.5-.67-1.5-1.5-1.5ZM8 19h12c.55 0 1-.45 1-1s-.45-1-1-1H8c-.55 0-1 .45-1 1s.45 1 1 1Zm0-6h12c.55 0 1-.45 1-1s-.45-1-1-1H8c-.55 0-1 .45-1 1s.45 1 1 1ZM7 6c0 .55.45 1 1 1h12c.55 0 1-.45 1-1s-.45-1-1-1H8c-.55 0-1 .45-1 1Z"/>
</symbol><symbol fill="currentColor" viewBox="0 0 16 16" id="svg-close" xmlns="http://www.w3.org/2000/svg">
  <path d="M15.59 2.39A1.4 1.4 0 1 0 13.61.41L8 6.02 2.39.41A1.4 1.4 0 1 0 .41 2.39L6.02 8 .41 13.61a1.4 1.4 0 0 0 1.98 1.98L8 9.98l5.61 5.61a1.4 1.4 0 1 0 1.98-1.98L9.98 8l5.61-5.61Z"/>
</symbol><symbol fill="currentColor" viewBox="0 0 24 24" id="svg-home" xmlns="http://www.w3.org/2000/svg">
  <path d="M10 19v-5h4v5c0 .55.45 1 1 1h3c.55 0 1-.45 1-1v-7h1.7c.46 0 .68-.57.33-.87L12.67 3.6c-.38-.34-.96-.34-1.34 0l-8.36 7.53c-.34.3-.13.87.33.87H5v7c0 .55.45 1 1 1h3c.55 0 1-.45 1-1Z"/>
</symbol><symbol fill="currentColor" viewBox="0 0 24 24" id="svg-lock" xmlns="http://www.w3.org/2000/svg">
  <path d="M18 8h-1V6c0-2.76-2.24-5-5-5S7 3.24 7 6v2H6c-1.1 0-2 .9-2 2v10c0 1.1.9 2 2 2h12c1.1 0 2-.9 2-2V10c0-1.1-.9-2-2-2Zm-6 9c-1.1 0-2-.9-2-2s.9-2 2-2 2 .9 2 2-.9 2-2 2ZM9 8V6c0-1.66 1.34-3 3-3s3 1.34 3 3v2H9Z"/>
</symbol><symbol fill="currentColor" viewBox="0 0 25 24" id="svg-more-actions" xmlns="http://www.w3.org/2000/svg">
  <path d="M12.333 8c1.1 0 2-.9 2-2s-.9-2-2-2-2 .9-2 2 .9 2 2 2Zm0 2c-1.1 0-2 .9-2 2s.9 2 2 2 2-.9 2-2-.9-2-2-2Zm0 6c-1.1 0-2 .9-2 2s.9 2 2 2 2-.9 2-2-.9-2-2-2Z"/>
</symbol><symbol fill="currentColor" viewBox="0 0 24 24" id="svg-pc" xmlns="http://www.w3.org/2000/svg">
  <path d="M20 18c1.1 0 1.99-.9 1.99-2L22 6c0-1.1-.9-2-2-2H4c-1.1 0-2 .9-2 2v10c0 1.1.9 2 2 2H1c-.55 0-1 .45-1 1s.45 1 1 1h22c.55 0 1-.45 1-1s-.45-1-1-1h-3ZM5 6h14c.55 0 1 .45 1 1v8c0 .55-.45 1-1 1H5c-.55 0-1-.45-1-1V7c0-.55.45-1 1-1Z"/>
</symbol><symbol fill="currentColor" viewBox="0 0 20 20" id="svg-plus" xmlns="http://www.w3.org/2000/svg">
  <path d="M15 10.833h-4.167V15a.836.836 0 0 1-.833.833.836.836 0 0 1-.833-.833v-4.167H5A.836.836 0 0 1 4.167 10c0-.458.375-.833.833-.833h4.167V5c0-.458.375-.833.833-.833.458 0 .833.375.833.833v4.167H15c.458 0 .833.375.833.833a.836.836 0 0 1-.833.833Z"/>
</symbol><symbol fill="currentColor" viewBox="0 0 24 24" id="svg-r-key" xmlns="http://www.w3.org/2000/svg">
  <path d="M12.09 2.91C10.08.9 7.07.49 4.65 1.67L8.28 5.3c.39.39.39 1.02 0 1.41L6.69 8.3c-.39.4-1.02.4-1.41 0L1.65 4.67C.48 7.1.89 10.09 2.9 12.1a6.507 6.507 0 0 0 6.89 1.48l7.96 7.96a2.613 2.613 0 0 0 3.71 0 2.613 2.613 0 0 0 0-3.71L13.54 9.9c.92-2.34.44-5.1-1.45-6.99Z"/>
</symbol><symbol fill="currentColor" viewBox="0 0 24 24" id="svg-settings" xmlns="http://www.w3.org/2000/svg">
  <path d="M19.5 12c0-.23-.01-.45-.03-.68l1.86-1.41c.4-.3.51-.86.26-1.3l-1.87-3.23a.987.987 0 0 0-1.25-.42l-2.15.91c-.37-.26-.76-.49-1.17-.68l-.29-2.31c-.06-.5-.49-.88-.99-.88h-3.73c-.51 0-.94.38-1 .88l-.29 2.31c-.41.19-.8.42-1.17.68l-2.15-.91c-.46-.2-1-.02-1.25.42L2.41 8.62c-.25.44-.14.99.26 1.3l1.86 1.41a7.343 7.343 0 0 0 0 1.35l-1.86 1.41c-.4.3-.51.86-.26 1.3l1.87 3.23c.25.44.79.62 1.25.42l2.15-.91c.37.26.76.49 1.17.68l.29 2.31c.06.5.49.88.99.88h3.73c.5 0 .93-.38.99-.88l.29-2.31c.41-.19.8-.42 1.17-.68l2.15.91c.46.2 1 .02 1.25-.42l1.87-3.23c.25-.44.14-.99-.26-1.3l-1.86-1.41c.03-.23.04-.45.04-.68Zm-7.46 3.5c-1.93 0-3.5-1.57-3.5-3.5s1.57-3.5 3.5-3.5 3.5 1.57 3.5 3.5-1.57 3.5-3.5 3.5Z"/>
</symbol><symbol fill="currentColor" viewBox="0 0 24 24" id="svg-user" xmlns="http://www.w3.org/2000/svg">
  <path d="M19 3h-4.18C14.4 1.84 13.3 1 12 1c-1.3 0-2.4.84-2.82 2H5c-1.1 0-2 .9-2 2v14c0 1.1.9 2 2 2h14c1.1 0 2-.9 2-2V5c0-1.1-.9-2-2-2Zm-7 0c.55 0 1 .45 1 1s-.45 1-1 1-1-.45-1-1 .45-1 1-1Zm0 4c1.66 0 3 1.34 3 3s-1.34 3-3 3-3-1.34-3-3 1.34-3 3-3Zm6 12H6v-1.4c0-2 4-3.1 6-3.1s6 1.1 6 3.1V19Z"/>
</symbol><symbol fill="none" viewBox="0 0 25 24" id="svg-warning" xmlns="http://www.w3.org/2000/svg">
  <path fill="#F31155" d="M12.667 5.99 20.197 19H5.137l7.53-13.01ZM3.407 18c-.77 1.33.19 3 1.73 3h15.06c1.54 0 2.5-1.67 1.73-3l-7.53-13.01c-.77-1.33-2.69-1.33-3.46 0L3.407 18Zm8.26-7v2c0 .55.45 1 1 1s1-.45 1-1v-2c0-.55-.45-1-1-1s-1 .45-1 1Zm0 5h2v2h-2v-2Z"/>
  <path fill="#000" fill-opacity=".16" d="M12.667 5.99 20.197 19H5.137l7.53-13.01ZM3.407 18c-.77 1.33.19 3 1.73 3h15.06c1.54 0 2.5-1.67 1.73-3l-7.53-13.01c-.77-1.33-2.69-1.33-3.46 0L3.407 18Zm8.26-7v2c0 .55.45 1 1 1s1-.45 1-1v-2c0-.55-.45-1-1-1s-1 .45-1 1Zm0 5h2v2h-2v-2Z"/>
</symbol></svg>