<svg xmlns="http://www.w3.org/2000/svg" width="16" height="16" fill="none" viewBox="0 0 16 16">
  <g clip-path="url(#a)">
    <path fill="#fff" d="M8 4.667a3.335 3.335 0 0 0 0 6.666 3.335 3.335 0 0 0 0-6.666Zm-6.667 4h1.334c.366 0 .666-.3.666-.667 0-.367-.3-.667-.666-.667H1.333c-.366 0-.666.3-.666.667 0 .367.3.667.666.667Zm12 0h1.334c.366 0 .666-.3.666-.667 0-.367-.3-.667-.666-.667h-1.334c-.366 0-.666.3-.666.667 0 .367.3.667.666.667Zm-6-7.334v1.334c0 .366.3.666.667.666.367 0 .667-.3.667-.666V1.333c0-.366-.3-.666-.667-.666-.367 0-.667.3-.667.666Zm0 12v1.334c0 .366.3.666.667.666.367 0 .667-.3.667-.666v-1.334c0-.366-.3-.666-.667-.666-.367 0-.667.3-.667.666Zm-3.34-10.28a.664.664 0 1 0-.94.94l.707.707a.664.664 0 1 0 .94-.94l-.707-.707ZM12.24 11.3a.664.664 0 1 0-.94.94l.707.707a.664.664 0 1 0 .94-.94l-.707-.707Zm.707-7.307a.664.664 0 1 0-.94-.94l-.707.707a.664.664 0 1 0 .94.94l.707-.707ZM4.7 12.24a.664.664 0 1 0-.94-.94l-.707.707a.664.664 0 1 0 .94.94l.707-.707Z"/>
  </g>
  <defs>
    <clipPath id="a">
      <path fill="#fff" d="M0 0h16v16H0z"/>
    </clipPath>
  </defs>
</svg>
