<svg xmlns="http://www.w3.org/2000/svg" width="52" height="52" fill="none" viewBox="0 0 52 52">
  <g clip-path="url(#a)">
    <path fill="#fff" fill-rule="evenodd" d="M24.46.028c-1.145.096-1.512.133-2.095.216-5.062.72-9.676 2.846-13.566 6.252-.578.506-.587.472.12.493 1.02.03 1.646.451 1.98 1.332l.103.273.024 10.69.024 10.688.15.315c.25.531.612.863 1.163 1.07.329.125 4.489.192 5.112.083 1.04-.18 1.627-.89 1.732-2.094.066-.762.338-1.265.871-1.61.53-.342.581-.347 3.322-.33l2.431.014.324.154c.583.275.96.727 1.12 1.34.088.34.113 12.704.026 13.162a2.031 2.031 0 0 1-1.613 1.59c-.356.066-4.411.07-4.807.006a2.003 2.003 0 0 1-1.593-1.395c-.065-.222-.077-.6-.078-2.528 0-2.416-.021-2.68-.241-3.112-.22-.432-.702-.835-1.226-1.025-.1-.037-2.141-.06-6.741-.078l-6.596-.025-.265-.108a2.14 2.14 0 0 1-1.188-1.24c-.084-.23-.09-.715-.112-10.11l-.024-9.867-.327.686C-.186 20.494-.736 27.155.983 33.126c3.776 13.12 16.863 21.05 30.27 18.343 4.864-.982 9.317-3.355 12.916-6.884l.86-.843-6.036-.024-6.035-.024-.386-.131c-.89-.304-1.53-.946-1.861-1.867l-.113-.313-.013-8.16c-.014-9.081-.03-8.591.311-9.287.334-.678 1.042-1.254 1.825-1.483.257-.076.699-.086 4.596-.11 4.752-.03 4.391-.004 4.686-.322.226-.244.227-.273.213-4.643l-.014-4.12-.133-.2a1.107 1.107 0 0 0-.337-.31l-.204-.11-4.358-.024-4.357-.025-.306-.114c-2.558-.95-2.537-4.632.031-5.504l.323-.11 5.333-.013c2.932-.007 5.33-.029 5.33-.048-.002-.02-.238-.238-.526-.485-4.067-3.5-8.922-5.596-14.35-6.197-.657-.073-3.627-.136-4.189-.09Zm23.58 18.97c-.016 7.518.01 6.93-.331 7.626-.22.45-.77.99-1.246 1.223-.66.323-.577.318-5.166.319-4.469 0-4.318-.008-4.6.256-.314.292-.297.03-.297 4.602 0 4.374-.004 4.299.232 4.548.298.315-.018.294 4.751.32l4.334.025.313.112c.899.323 1.474.89 1.86 1.833.055.134.162-.016.75-1.055 3.088-5.446 4.088-11.826 2.83-18.06-.575-2.847-2.063-6.597-3.35-8.442-.056-.079-.068.972-.08 6.692Z" clip-rule="evenodd"/>
  </g>
  <defs>
    <clipPath id="a">
      <path fill="#fff" d="M0 0h52v52H0z"/>
    </clipPath>
  </defs>
</svg>
